<?xml version="1.0" encoding="UTF-8"?>
<svg width="143px" height="55px" viewBox="0 0 143 55" version="1.1" xmlns="http://www.w3.org/2000/svg" xmlns:xlink="http://www.w3.org/1999/xlink">
    <!-- Generator: Sketch 44 (41411) - http://www.bohemiancoding.com/sketch -->
    <title>Page 1</title>
    <desc>Created with Sketch.</desc>
    <defs>
        <polygon id="path-1" points="8.76420532e-16 29.9994727 8.76420532e-16 0.999472727 23.9471053 0.999472727 23.9471053 29.9994727"></polygon>
        <polygon id="path-3" points="0.517441667 45 30.74115 45 30.74115 0.000132352941 0.517441667 0.000132352941 0.517441667 45"></polygon>
    </defs>
    <g id="Page-1" stroke="none" stroke-width="1" fill="none" fill-rule="evenodd">
        <g id="FC-homepage-alternative" transform="translate(-1302.000000, -11614.000000)">
            <g id="Page-1" transform="translate(1302.000000, 11614.000000)">
                <g id="Group-3" transform="translate(0.000000, 24.000000)">
                    <mask id="mask-2" fill="white">
                        <use xlink:href="#path-1"></use>
                    </mask>
                    <g id="Clip-2"></g>
                    <path d="M16.8418421,27.0994727 C19.0786842,27.0994727 21.4471053,26.5735182 23.8155263,25.6494727 L23.9471053,26.0449273 C21.1839474,28.6812909 17.3681579,29.9994727 13.9471053,29.9994727 C6.57868421,29.9994727 -0.000263157895,24.8598818 -0.000263157895,15.4994727 C-0.000263157895,7.45988182 5.92078947,0.999472727 15.2628947,0.999472727 C17.6313158,0.999472727 20.2628947,1.39492727 23.1576316,2.44947273 L23.1576316,11.0189727 L22.6313158,11.0189727 L17.4997368,1.9222 C13.4207895,1.65856364 8.15763158,4.16442727 8.15763158,14.5767455 C8.02605263,23.2780636 11.9734211,27.0994727 16.8418421,27.0994727" id="Fill-1" fill="#ffffff" mask="url(#mask-2)"></path>
                </g>
                <path d="M67.5006356,12 C69.9160946,12 71.6959064,13.8338658 71.6959064,16.3226837 C71.6959064,18.8115016 69.9160946,20.6453674 67.5006356,20.6453674 C65.0851767,20.6453674 63.3053649,18.8115016 63.3053649,16.3226837 C63.3053649,13.8338658 65.0851767,12 67.5006356,12 L67.5006356,12 Z M71.1873888,51.1661342 L75,52.4760383 L75,53 L60,53 L60,52.4760383 L63.8138825,51.1661342 L63.8138825,28.6357827 L60,27.456869 L60,27.0638978 L70.8060005,24.9680511 L71.0602593,25.2300319 L71.0602593,51.1661342 L71.1873888,51.1661342 Z" id="Fill-4" fill="#ffffff"></path>
                <polygon id="Fill-6" fill="#ffffff" points="88.1864407 52.1625075 92 53.4759403 92 54 77 54 77 53.4759403 80.8135593 52.1625075 80.8135593 13.6789254 77 12.4968358 77 12.102806 87.8050847 10 88.059322 10.264 88.059322 52.1625075"></polygon>
                <path d="M102.499364,12 C104.914823,12 106.695906,13.8338658 106.695906,16.3226837 C106.695906,18.8115016 104.914823,20.6453674 102.499364,20.6453674 C100.085177,20.6453674 98.3040936,18.8115016 98.3040936,16.3226837 C98.3040936,13.8338658 100.085177,12 102.499364,12 L102.499364,12 Z M106.186117,51.1661342 L110,52.4760383 L110,53 L95,53 L95,52.4760383 L98.8138825,51.1661342 L98.8138825,28.6357827 L95,27.456869 L95,27.0638978 L105.806001,24.9680511 L106.060259,25.2300319 L106.060259,51.1661342 L106.186117,51.1661342 Z" id="Fill-8" fill="#ffffff"></path>
                <g id="Group-12" transform="translate(112.000000, 10.000000)">
                    <mask id="mask-4" fill="white">
                        <use xlink:href="#path-3"></use>
                    </mask>
                    <g id="Clip-11"></g>
                    <path d="M19.50365,18.2648382 C18.0828167,17.6030735 16.5328167,17.3383676 15.24115,17.3383676 C11.4966083,17.3383676 8.39531667,21.1766029 8.39531667,30.3089559 C8.39531667,39.1766029 10.850775,41.9560147 14.3369833,41.9560147 C16.1453167,41.9560147 17.8244833,41.29425 19.50365,39.9707206 L19.50365,18.2648382 Z M19.50365,3.70601471 L15.62865,2.51483824 L15.62865,2.11777941 L26.6078167,0.000132352941 L26.86615,0.264838235 L26.86615,41.29425 L30.74115,42.4854265 L30.74115,42.8824853 L19.7619833,45.0001324 L19.50365,44.7354265 L19.50365,40.8971912 L19.3744833,40.8971912 C16.9203167,43.4118971 14.0799417,45.0001324 10.850775,45.0001324 C5.68410833,45.0001324 0.517441667,40.3677794 0.517441667,30.8383676 C0.517441667,20.6471912 7.10365,15.8824853 13.30365,15.8824853 C15.4994833,15.8824853 17.6966083,16.4118971 19.50365,17.4707206 L19.50365,3.70601471 Z" id="Fill-10" fill="#ffffff" mask="url(#mask-4)"></path>
                </g>
                <path d="M55.0557769,52.1515892 L55.0557769,34.8557457 C55.0557769,27.99022 51.1115538,25.7457213 46.7729084,25.7457213 C43.2231076,25.7457213 40.1992032,27.0660147 37.5697211,29.8386308 L37.438247,29.8386308 L37.438247,7.52567237 L29.9442231,0 L29.9442231,52.1515892 L26,53.4718826 L26,54 L40.9880478,54 L40.9880478,53.4718826 L37.438247,52.1515892 L37.438247,30.4987775 C39.4103586,29.1784841 41.5139442,28.3863081 43.4860558,28.3863081 C45.8525896,28.3863081 47.561753,29.7066015 47.561753,33.403423 L47.561753,52.0195599 L44.0119522,53.3398533 L44.0119522,53.8679707 L59,53.8679707 L59,53.3398533 L55.0557769,52.1515892 Z" id="Fill-13" fill="#ffffff"></path>
            </g>
        </g>
    </g>
</svg>