<?xml version="1.0" encoding="UTF-8"?>
<svg width="84px" height="54px" viewBox="0 0 84 54" version="1.1" xmlns="http://www.w3.org/2000/svg" xmlns:xlink="http://www.w3.org/1999/xlink">
    <!-- Generator: Sketch 49.1 (51147) - http://www.bohemiancoding.com/sketch -->
    <title>icon - pracownicy</title>
    <desc>Created with Sketch.</desc>
    <defs></defs>
    <g id="Page-1" stroke="none" stroke-width="1" fill="none" fill-rule="evenodd">
        <g id="Recruitment_task" transform="translate(-470.000000, -64.000000)" fill="#FFFFFF" fill-rule="nonzero">
            <g id="icon---pracownicy" transform="translate(470.000000, 64.000000)">
                <path d="M56.4726094,30.3113672 L49.3224375,27.1334766 C48.8172891,26.9090391 48.4911328,26.4068437 48.4911328,25.8542812 L48.4911328,23.8907812 C50.8930078,21.9769922 52.4368359,19.0299375 52.4368359,15.7273594 L52.4368359,12.9633984 C53.2281094,12.5261719 53.7519609,11.68125 53.7519609,10.7349375 L53.7519609,10.4666953 C53.7519609,4.71203906 49.0701094,0.0301875 43.3154531,0.0301875 L40.6852031,0.0301875 C34.9305469,0.0301875 30.2486953,4.71203906 30.2486953,10.4666953 L30.2486953,12.9005625 C30.2486953,13.7323594 30.6066797,14.4858984 31.2306094,14.9680781 C31.3364297,15.0497812 31.4478281,15.1216406 31.5638203,15.1838203 L31.5638203,15.7271953 C31.5638203,19.0297734 33.1074844,21.9768281 35.5091953,23.8904531 L35.5091953,25.8541172 C35.5091953,26.4066797 35.182875,26.908875 34.6778906,27.1333125 L27.5277188,30.3112031 C25.1860547,31.3518516 23.6729063,33.6802266 23.6729063,36.2427187 L23.6729063,52.5511875 C23.6729063,53.2307344 24.2238281,53.7816562 24.903375,53.7816562 C25.5829219,53.7816562 26.1338438,53.2307344 26.1338438,52.5511875 L26.1338438,36.2428828 C26.1338438,36.1003125 26.1440156,35.9593828 26.1587813,35.8196016 L29.4534844,39.1143047 C29.9661797,39.6271641 30.2486953,40.3088437 30.2486953,41.0341641 L30.2486953,52.5513516 C30.2486953,53.2308984 30.7996172,53.7818203 31.4791641,53.7818203 C32.1587109,53.7818203 32.7096328,53.2308984 32.7096328,52.5513516 L32.7096328,41.0341641 C32.7096328,39.6516094 32.1713438,38.3519062 31.1936953,37.3742578 L27.265875,33.4462734 C27.6197578,33.0791016 28.0443516,32.7747656 28.5273516,32.5600078 L35.5569375,29.4357656 L40.7700234,34.6488516 L40.7700234,52.5511875 C40.7700234,53.2307344 41.3209453,53.7816562 42.0004922,53.7816562 C42.6800391,53.7816562 43.2309609,53.2307344 43.2309609,52.5511875 L43.2309609,34.6490156 L48.4440469,29.4359297 L55.4734688,32.5600078 C55.9564688,32.7747656 56.3810625,33.0791016 56.7349453,33.4464375 L52.807125,37.3742578 C51.8294766,38.3519062 51.2911875,39.6516094 51.2911875,41.0341641 L51.2911875,52.5513516 C51.2911875,53.2308984 51.8421094,53.7818203 52.5216563,53.7818203 C53.2012031,53.7818203 53.752125,53.2308984 53.752125,52.5513516 L53.752125,41.0341641 C53.752125,40.3090078 54.0344766,39.6271641 54.5473359,39.1143047 L57.841875,35.8197656 C57.8566406,35.9595469 57.8668125,36.1001484 57.8668125,36.2427187 L57.8668125,52.5511875 C57.8668125,53.2307344 58.4177344,53.7816562 59.0972813,53.7816562 C59.7768281,53.7816562 60.32775,53.2307344 60.32775,52.5511875 L60.32775,36.2428828 C60.3272578,33.6803906 58.8142734,31.3520156 56.4726094,30.3113672 Z M42,32.3992266 L37.4257734,27.8248359 C37.7735859,27.239625 37.9699688,26.5625391 37.9699688,25.8542812 L37.9699688,25.3535625 C39.2107734,25.8749531 40.5723281,26.1638672 42.0001641,26.1638672 C43.428,26.1638672 44.7893906,25.8751172 46.0300313,25.3537266 L46.0300313,25.8542812 C46.0300313,26.5627031 46.2264141,27.239625 46.5743906,27.825 L42,32.3992266 Z M42.0001641,23.7027656 C37.6024688,23.7029297 34.0245938,20.1250547 34.0245938,15.7273594 L34.0245938,15.1739766 C34.7924063,14.8696406 35.5418438,14.3853281 36.2592891,13.7233359 C36.7585313,13.2624844 36.7898672,12.4840078 36.3288516,11.9846016 C35.868,11.4853594 35.0896875,11.4540234 34.5901172,11.914875 C33.9747188,12.4830234 33.3598125,12.8500312 32.7629531,13.0058906 C32.7485156,13.0096641 32.7378516,13.0113047 32.7303047,13.0119609 C32.7214453,12.9947344 32.7094688,12.9586406 32.7094688,12.9007266 L32.7094688,10.4668594 C32.7094688,6.06916406 36.2873438,2.49128906 40.6850391,2.49128906 L43.3152891,2.49128906 C47.7131484,2.49128906 51.2908594,6.06916406 51.2908594,10.4668594 L51.2908594,10.7351016 C51.2908594,10.7749687 51.2669063,10.8095859 51.2354063,10.8158203 C43.8671953,12.2710547 40.1715234,9.52842187 38.9246484,8.28154687 C38.4441094,7.80100781 37.6649766,7.80100781 37.1846016,8.28154687 C36.7040625,8.76208594 36.7040625,9.54121875 37.1846016,10.0215937 C41.0056172,13.8426094 46.5812813,13.9115156 49.9757344,13.5036562 L49.9757344,15.7271953 C49.9757344,20.1248906 46.3978594,23.7027656 42.0001641,23.7027656 Z" id="Shape"></path>
                <path d="M22.1881406,23.6186016 L22.1881406,20.9878594 C22.1881406,17.7778125 20.5199531,14.952 18.0063516,13.3258125 C18.1615547,12.8278828 18.2426016,12.3063281 18.2426016,11.7818203 C18.2426016,8.92778906 15.9207891,6.60597656 13.0667578,6.60597656 C10.2127266,6.60597656 7.89091406,8.92795313 7.89091406,11.7818203 C7.89091406,12.3128906 7.97130469,12.8293594 8.12683594,13.3261406 C5.61339844,14.9521641 3.945375,17.7779766 3.945375,20.9878594 L3.945375,23.6181094 C3.945375,26.7266016 5.50938281,29.4753047 7.89075,31.1228203 L7.89075,33.8287031 C7.89075,34.3623984 7.59428906,34.8421172 7.11703125,35.0808281 L2.86108594,37.2087188 C1.09626563,38.091375 0,39.8652187 0,41.8383984 L0,52.5515156 C0,53.2310625 0.550921875,53.7819844 1.23046875,53.7819844 C1.91001562,53.7819844 2.4609375,53.2310625 2.4609375,52.5515156 L2.4609375,42.3706172 L4.46545312,44.3751328 C4.97814844,44.8879922 5.26066406,45.5696719 5.26066406,46.2949922 L5.26066406,52.5515156 C5.26066406,53.2310625 5.81158594,53.7819844 6.49113281,53.7819844 C7.17067969,53.7819844 7.72160156,53.2310625 7.72160156,52.5515156 L7.72160156,46.2949922 C7.72160156,44.9124375 7.18314844,43.6127344 6.20566406,42.6350859 L3.41578125,39.8452031 C3.40232812,39.83175 3.38789062,39.8201016 3.37410937,39.8074687 C3.54916406,39.6529219 3.74554688,39.5183906 3.96178125,39.4101094 L8.21772656,37.2822187 C8.43576563,37.1731172 8.63871094,37.0443281 8.827875,36.9012656 L11.8362891,39.9098437 L11.8362891,52.5516797 C11.8362891,53.2312266 12.3872109,53.7821484 13.0667578,53.7821484 C13.7463047,53.7821484 14.2972266,53.2312266 14.2972266,52.5516797 L14.2972266,39.9096797 L17.3058047,36.9011016 C17.4951328,37.0443281 17.6979141,37.1731172 17.9159531,37.2820547 L19.0894922,37.8689062 C19.2661875,37.9573359 19.453875,37.9991719 19.6389375,37.9991719 C20.0902734,37.9991719 20.524875,37.7497969 20.7404531,37.3188047 C21.0444609,36.7109531 20.7980391,35.9718516 20.1901875,35.6680078 L19.0166484,35.0811562 C18.5392266,34.8424453 18.2427656,34.3627266 18.2427656,33.8291953 L18.2427656,31.1233125 C20.6241328,29.4757969 22.1881406,26.7269297 22.1881406,23.6186016 Z M13.0667578,9.06691406 C14.5638281,9.06691406 15.7816641,10.2849141 15.7816641,11.7818203 C15.7816641,11.9467031 15.7668984,12.1083047 15.7386797,12.266625 C14.8931016,12.0070781 13.9961719,11.8664766 13.0667578,11.8664766 C12.1386563,11.8664766 11.242875,12.0065859 10.3986094,12.2654766 C10.3702266,12.1071562 10.3518516,11.946375 10.3518516,11.7818203 C10.3518516,10.28475 11.5696875,9.06691406 13.0667578,9.06691406 Z M13.0667578,14.3275781 C16.7392969,14.3275781 19.7272031,17.3154844 19.7272031,20.9880234 L19.7272031,21.4339453 C14.6043516,23.0023828 11.5513125,19.1054062 11.4208828,18.9346172 C11.2067812,18.6493125 10.8794766,18.4708125 10.5237891,18.4455469 C10.1681016,18.4206094 9.81864844,18.5507109 9.56648437,18.802875 C8.39196094,19.9773984 7.24155469,20.5439062 6.41074219,20.8173984 C6.50179688,17.2234453 9.45147656,14.3275781 13.0667578,14.3275781 Z M13.0667578,37.6597266 L10.2233906,34.8163594 C10.3064063,34.4990625 10.3518516,34.1683125 10.3518516,33.8288672 L10.3518516,32.326875 C11.2097344,32.5949531 12.1217578,32.7394922 13.0667578,32.7394922 C14.0117578,32.7394922 14.9237813,32.5949531 15.7816641,32.326875 L15.7816641,33.8288672 C15.7816641,34.1683125 15.8271094,34.4992266 15.910125,34.8163594 L13.0667578,37.6597266 Z M13.0667578,30.2785547 C9.39421875,30.2785547 6.4063125,27.2906484 6.4063125,23.6181094 L6.4063125,23.3631562 C7.38757031,23.1377344 8.84247656,22.6138828 10.3602188,21.3932578 C10.8971953,21.8998828 11.6646797,22.5213516 12.642,23.0543906 C13.7979844,23.6848828 15.3944766,24.268125 17.3445234,24.268125 C18.0855938,24.268125 18.8785078,24.1819922 19.7167031,23.9841328 C19.5258984,27.4871953 16.6164141,30.2785547 13.0667578,30.2785547 Z" id="Shape"></path>
                <path d="M81.1389141,34.5786328 L74.2527187,31.1354531 C73.7754609,30.8967422 73.479,30.4170234 73.479,29.8834922 L73.479,28.1396719 C75.0909141,26.7085547 76.10925,24.6229922 76.10925,22.3031484 L76.10925,20.9025469 C76.1376328,20.9025469 76.1655234,20.9033672 76.1939062,20.9033672 C76.8734531,20.9033672 77.424375,20.3524453 77.424375,19.6728984 L77.424375,17.0426484 C77.424375,12.7383047 73.9224609,9.23639062 69.6181172,9.23639062 L66.9878672,9.23639062 C62.6835234,9.23639062 59.1816094,12.7383047 59.1816094,17.0426484 L59.1816094,19.6728984 C59.1816094,20.3524453 59.7325312,20.9033672 60.4120781,20.9033672 C60.42225,20.9033672 60.4517812,20.9030391 60.4967344,20.9012344 L60.4967344,22.3031484 C60.4967344,24.6231562 61.5152344,26.7087187 63.1271484,28.1398359 L63.1271484,29.8836562 C63.1271484,30.4173516 62.8306875,30.8970703 62.3532656,31.1356172 C61.7454141,31.4394609 61.4989922,32.1785625 61.803,32.7864141 C62.0185781,33.2175703 62.4531797,33.4669453 62.9045156,33.4669453 C63.0894141,33.4669453 63.2771016,33.4251094 63.4537969,33.3368437 C63.6718359,33.2277422 63.8747812,33.0989531 64.0639453,32.9558906 L67.0725234,35.9644687 L67.0725234,52.5516797 C67.0725234,53.2312266 67.6234453,53.7821484 68.3029922,53.7821484 C68.9825391,53.7821484 69.5334609,53.2312266 69.5334609,52.5516797 L69.5334609,35.9641406 L72.541875,32.9555625 C72.7312031,33.0987891 72.9339844,33.2275781 73.1520234,33.3365156 L79.8154219,36.6682969 L77.7943359,38.6893828 C76.8168516,39.6670312 76.2783984,40.9667344 76.2783984,42.3492891 L76.2783984,52.5513516 C76.2783984,53.2308984 76.8293203,53.7818203 77.5088672,53.7818203 C78.1884141,53.7818203 78.7393359,53.2308984 78.7393359,52.5513516 L78.7393359,42.3492891 C78.7393359,41.6241328 79.0216875,40.9422891 79.5345469,40.4294297 L81.4489922,38.5149844 C81.5070703,38.7376172 81.5388984,38.9697656 81.5388984,39.2079844 L81.5388984,52.5513516 C81.5388984,53.2308984 82.0898203,53.7818203 82.7693672,53.7818203 C83.4489141,53.7818203 83.9998359,53.2308984 83.9998359,52.5513516 L83.9998359,39.2079844 C84,37.2349687 82.9037344,35.461125 81.1389141,34.5786328 Z M61.6423828,18.1892813 L61.6423828,17.0424844 L61.6425469,17.0424844 C61.6425469,14.0951016 64.0404844,11.6971641 66.9878672,11.6971641 L69.6181172,11.6971641 C72.5655,11.6971641 74.9634375,14.0951016 74.9634375,17.0424844 L74.9634375,18.4092891 C69.6145078,18.1207031 66.3865781,16.0392422 66.3552422,16.0187344 C66.1470469,15.8799375 65.9094844,15.8120156 65.6730703,15.8120156 C65.3554453,15.8120156 65.0404453,15.9347344 64.8025547,16.1724609 C63.6252422,17.3497734 62.4717187,17.9164453 61.6423828,18.1892813 Z M68.3029922,33.7143516 L65.459625,30.8709844 C65.5426406,30.5536875 65.5880859,30.2229375 65.5880859,29.8834922 L65.5880859,29.6214844 C66.4339922,29.9363203 67.3486406,30.1092422 68.3029922,30.1092422 C69.2573437,30.1092422 70.1719922,29.9363203 71.0178984,29.6214844 L71.0178984,29.8834922 C71.0178984,30.2229375 71.0631797,30.5536875 71.1463594,30.8709844 L68.3029922,33.7143516 Z M68.3029922,27.6484688 C65.3556094,27.6484688 62.9576719,25.2506953 62.9576719,22.3031484 L62.9576719,20.3194687 C63.8194922,19.9751016 64.8235547,19.427625 65.8453359,18.5571094 C67.1374922,19.2294375 69.8409141,20.3914922 73.6483125,20.7753984 L73.6483125,22.3031484 C73.6483125,25.2505313 71.250375,27.6484688 68.3029922,27.6484688 Z" id="Shape"></path>
            </g>
        </g>
    </g>
</svg>